<svg width="60" height="60" fill="none" xmlns="http://www.w3.org/2000/svg"><path d="M21.21 1.758C21.21.787 20.425 0 19.454 0H5.391C4.42 0 3.633.787 3.633 1.758v42.304c0 .274.07.554.183.781l7.031 14.18a1.757 1.757 0 003.15 0l7.03-14.18c.113-.226.184-.506.184-.78V1.758zM7.149 42.305V14.18h3.516v28.125H7.148zM14.18 14.18h3.515v28.125H14.18V14.18zm3.515-10.664v7.148H7.148V3.516h10.547zm-5.273 50.77L8.224 45.82h8.395l-4.197 8.465zm20.421-15.631a1.758 1.758 0 001.916-.38l6.516-6.517h9.819a5.28 5.28 0 005.273-5.274V12.422a5.28 5.28 0 00-5.273-5.274H30a5.28 5.28 0 00-5.273 5.274v14.062A5.28 5.28 0 0030 31.758h1.758v5.273c0 .711.428 1.352 1.085 1.624zM30 28.242a1.76 1.76 0 01-1.758-1.758V12.422c0-.97.789-1.758 1.758-1.758h21.094a1.76 1.76 0 011.758 1.758v14.062a1.76 1.76 0 01-1.758 1.758H40.547c-.466 0-.913.185-1.243.515l-4.03 4.03V30a1.76 1.76 0 00-1.758-1.758H30z" fill="#4331B3"/><path d="M37.546 24.212c.343.343.793.515 1.243.515.45 0 .9-.172 1.243-.515l5.273-5.274a1.758 1.758 0 10-2.486-2.486l-4.03 4.03-1.394-1.393a1.758 1.758 0 10-2.486 2.486l2.637 2.637z" fill="#4331B3"/></svg>