<svg width="64" height="64" fill="none" xmlns="http://www.w3.org/2000/svg"><path d="M63.296 57.25v-.002L49.006 2.72a.95.95 0 00-1.163-.688L32.966 5.56a.928.928 0 00-.45.305v-2.09a.963.963 0 00-.953-.973H.952A.963.963 0 000 3.775v56.45c0 .537.426.973.952.973h30.611a.963.963 0 00.952-.973V7.598l14.068 53.68a.956.956 0 00.92.722.966.966 0 00.243-.033L62.62 58.44a.976.976 0 00.676-1.19zm-49.012.002H3.86V6.748h10.424v50.504zm14.327 0H18.188V6.748H28.61v50.504zM50 58.44L36.5 7.598l9-2.038L59 56l-9 2.44z" fill="#4331B3"/><path d="M7.25 9.5a1.25 1.25 0 100 2.5h3.5a1.25 1.25 0 100-2.5h-3.5zm0 4.5a1.25 1.25 0 100 2.5h3.5a1.25 1.25 0 100-2.5h-3.5zm14-5a1.25 1.25 0 100 2.5h3.5a1.25 1.25 0 100-2.5h-3.5zm0 4.5a1.25 1.25 0 100 2.5h3.5a1.25 1.25 0 100-2.5h-3.5zm-14 34a1.25 1.25 0 100 2.5h3.5a1.25 1.25 0 100-2.5h-3.5zm0 4.5a1.25 1.25 0 100 2.5h3.5a1.25 1.25 0 100-2.5h-3.5zm14-5a1.25 1.25 0 100 2.5h3.5a1.25 1.25 0 100-2.5h-3.5zm0 4.5a1.25 1.25 0 100 2.5h3.5a1.25 1.25 0 100-2.5h-3.5zm22.942-39.338l-2.807.561a1.079 1.079 0 00.423 2.115l2.807-.561a1.079 1.079 0 00-.423-2.115zm-1-3l-2.807.561a1.079 1.079 0 10.423 2.115l2.807-.561a1.079 1.079 0 00-.423-2.115zm11 42l-2.807.561a1.079 1.079 0 00.423 2.115l2.807-.561a1.079 1.079 0 00-.423-2.115zm-1-3l-2.807.561a1.079 1.079 0 00.423 2.115l2.807-.561a1.079 1.079 0 00-.423-2.115z" fill="#4331B3"/></svg>