<svg width="70" height="70" fill="none" xmlns="http://www.w3.org/2000/svg"><path d="M55.19 5.387h-6.654V2.734A2.734 2.734 0 0045.8 0H24.29a2.734 2.734 0 00-2.734 2.734v2.653h-6.654a6.844 6.844 0 00-6.836 6.835v50.942A6.844 6.844 0 0014.902 70H55.19a6.844 6.844 0 006.836-6.836V12.222a6.844 6.844 0 00-6.836-6.835zm-12.123.082v9.062H27.024V5.47h16.043zm13.49 57.695c0 .754-.613 1.367-1.367 1.367H14.902a1.368 1.368 0 01-1.367-1.367V12.222c0-.753.613-1.367 1.367-1.367h6.653v6.41A2.735 2.735 0 0024.29 20H45.8a2.735 2.735 0 002.735-2.734v-6.41h6.654a1.37 1.37 0 011.367 1.366v50.942zm-8.823-31.238a2.734 2.734 0 010 3.868l-14.37 14.369a2.734 2.734 0 01-3.866 0l-7.141-7.14a2.735 2.735 0 013.867-3.868l5.207 5.208 12.436-12.436a2.734 2.734 0 013.867 0z" fill="#FF27C2"/><path d="M31.111 8.5a1.611 1.611 0 000 3.222h7.778a1.611 1.611 0 100-3.222H31.11z" fill="#FF27C2"/></svg>