<svg width="70" height="70" fill="none" xmlns="http://www.w3.org/2000/svg"><path d="M64.625 57.25v-8.626a2.687 2.687 0 115.375 0V61.25a4.377 4.377 0 01-4.375 4.375H4.375A4.377 4.377 0 010 61.25V21.873A4.377 4.377 0 014.375 17.5H25.75a2.687 2.687 0 110 5.375H8.375a3 3 0 00-3 3v1.75a3 3 0 003 3H26a2.438 2.438 0 110 4.875H8.375a3 3 0 00-3 3v18.75a3 3 0 003 3h53.25a3 3 0 003-3z" fill="#FF27C2"/><path d="M14.063 43.75h7.5a3.125 3.125 0 110 6.25h-7.5a3.125 3.125 0 010-6.25zm54.536-32.629L52.41 4.184a2.361 2.361 0 00-1.827 0L34.397 11.12A2.318 2.318 0 0033 13.25v9.25c0 12.723 4.704 20.16 17.348 27.445a2.32 2.32 0 002.304 0C65.296 42.678 70 35.24 70 22.499v-9.25c0-.925-.55-1.762-1.401-2.128zM65.375 22.5c0 10.679-3.533 16.557-13.875 22.755-10.342-6.212-13.875-12.09-13.875-22.755v-7.724L51.5 8.827l13.875 5.948V22.5z" fill="#FF27C2"/><path d="M59.68 19.474a2.202 2.202 0 00-3.075.341l-6.878 8.602-2.721-4.07a2.193 2.193 0 00-3.032-.607 2.19 2.19 0 00-.608 3.032l4.375 6.562c.39.582 1.028.94 1.728.976h.092c.66 0 1.29-.298 1.71-.823l8.75-10.937a2.19 2.19 0 00-.34-3.076z" fill="#FF27C2"/></svg>