<svg width="71" height="70" fill="none" xmlns="http://www.w3.org/2000/svg"><path d="M52.756 31.95c-5.98 0-12.201 3.302-15.005 8.202H10.863l-9.008 7.68a2 2 0 000 3.044l9.008 7.68h26.89c2.803 4.9 9.023 8.202 15.004 8.202 9.002 0 17.312-8.36 17.312-17.404 0-9.045-8.31-17.404-17.312-17.404zM12.21 53.455l-3.301-2.51a2 2 0 010-3.184l3.301-2.51h23.88a16.597 16.597 0 00-.513 4.103c0 1.415.178 2.79.512 4.1H12.211zm40.545 8.202c-6.696 0-12.143-5.52-12.143-12.303 0-6.784 5.447-12.303 12.143-12.303 6.77 0 12.278 5.519 12.278 12.303 0 6.784-5.508 12.303-12.278 12.303zM32.147 11.444c-2.8-4.899-9.014-8.202-14.988-8.202C8.241 3.242 0 11.602 0 20.646c0 9.046 8.241 17.405 17.159 17.405 5.974 0 12.187-3.303 14.988-8.202h26.891l9.137-7.67a2 2 0 000-3.064l-9.137-7.67H32.147zM17.159 32.95c-6.688 0-12.13-5.52-12.13-12.304 0-6.783 5.442-12.303 12.13-12.303 6.688 0 12.13 5.52 12.13 12.303 0 6.784-5.442 12.304-12.13 12.304zm40.55-8.202H33.805c.334-1.312.512-2.686.512-4.102 0-1.415-.178-2.79-.512-4.1h23.902l3.341 2.5a2 2 0 010 3.202l-3.34 2.5z" fill="#FF27C2"/><path d="M57.507 42.811a1 1 0 00-1.414 0l-2.936 2.936a1 1 0 01-1.414 0l-2.936-2.936a1 1 0 00-1.414 0l-1.486 1.486a1 1 0 000 1.414l2.936 2.936a1 1 0 010 1.414l-2.936 2.935a1 1 0 000 1.415l1.486 1.485a1 1 0 001.414 0l2.936-2.935a1 1 0 011.414 0l2.936 2.935a1 1 0 001.414 0l1.485-1.485a1 1 0 000-1.415l-2.935-2.935a1 1 0 010-1.414l2.935-2.936a1 1 0 000-1.414l-1.485-1.486zM15.988 21.879a1 1 0 01-1.326.065l-2.963-2.382a1 1 0 00-1.333.072l-1.12 1.12a1 1 0 00.04 1.451l5.363 4.81a1 1 0 001.374-.037l8.274-8.274a1 1 0 00-.002-1.416L23.2 16.197a1 1 0 00-1.406-.006l-5.806 5.688z" fill="#FF27C2"/></svg>