<svg width="60" height="60" fill="none" xmlns="http://www.w3.org/2000/svg"><path d="M30 17.695H8.79c-.972 0-1.759.787-1.759 1.758 0 6.775 5.612 12.305 12.422 12.305 6.785 0 12.305-5.52 12.305-12.305 0-.97-.787-1.758-1.758-1.758zM19.453 28.242c-4.3 0-7.9-3.024-8.727-7.032h17.34c-.817 4.008-4.368 7.032-8.613 7.032zM12.422 14.18h3.515a1.758 1.758 0 000-3.516h-3.515a1.758 1.758 0 000 3.516zm10.547 0h3.515a1.758 1.758 0 000-3.516H22.97a1.758 1.758 0 100 3.516z" fill="#4331B3"/><path d="M40.547 21.21c-.617 0-1.234.032-1.847.09a19.51 19.51 0 00.09-1.847C38.79 8.727 30.114 0 19.452 0 8.763 0 0 8.765 0 19.453 0 30.115 8.727 38.79 19.453 38.79c.623 0 1.239-.03 1.847-.089a19.62 19.62 0 00-.09 1.847C21.21 51.273 29.886 60 40.548 60 51.237 60 60 51.235 60 40.547c0-10.662-8.727-19.336-19.453-19.336zM3.516 19.454c0-8.788 7.15-15.937 15.937-15.937 8.723 0 15.82 7.15 15.82 15.937 0 8.723-7.097 15.82-15.82 15.82-8.788 0-15.937-7.097-15.937-15.82zm37.03 37.031c-8.722 0-15.82-7.15-15.82-15.937 0-.856.07-1.71.206-2.55a19.416 19.416 0 0013.065-13.065c.84-.135 1.694-.205 2.55-.205 8.788 0 15.937 7.097 15.937 15.82 0 8.788-7.15 15.937-15.937 15.937z" fill="#4331B3"/><path d="M40.547 42.305a12.32 12.32 0 00-9.164 4.1A1.758 1.758 0 0034 48.751a8.803 8.803 0 016.546-2.93 8.804 8.804 0 016.546 2.93 1.758 1.758 0 002.618-2.346 12.324 12.324 0 00-9.164-4.1zm-7.031-3.515h3.515a1.758 1.758 0 000-3.517h-3.515a1.758 1.758 0 000 3.516zm10.547 0h3.515a1.758 1.758 0 000-3.517h-3.516a1.758 1.758 0 000 3.516z" fill="#4331B3"/></svg>