<svg width="70" height="70" fill="none" xmlns="http://www.w3.org/2000/svg"><path d="M17.979 64.531h-9.68a2.778 2.778 0 01-2.188-1.04 2.857 2.857 0 01-.58-2.395c2.84-13.639 14.877-23.6 28.773-23.923a17.886 17.886 0 001.4 0c3.397.077 6.716.716 9.876 1.903a2.734 2.734 0 101.922-5.12 34.09 34.09 0 00-1.367-.48c4.526-3.395 7.46-8.802 7.46-14.882C53.594 8.34 45.252 0 35 0 24.748 0 16.407 8.341 16.407 18.594c0 6.085 2.938 11.497 7.47 14.89a35.53 35.53 0 00-11.458 6.298C6.166 44.925 1.819 52.1.178 59.982a8.303 8.303 0 001.69 6.96A8.254 8.254 0 008.298 70h9.681a2.734 2.734 0 100-5.469zm3.896-45.937c0-7.238 5.888-13.125 13.126-13.125 7.237 0 13.125 5.888 13.125 13.125 0 7.023-5.545 12.774-12.486 13.109a35.794 35.794 0 00-.64-.007c-.213 0-.427.003-.64.007-6.941-.336-12.485-6.087-12.485-13.11z" fill="#FF27C2"/><path d="M67.907 47.114c-1.17-2.618-3.807-4.314-6.723-4.321h-8.546c-3.076 0-5.76 1.813-6.84 4.622-.144.374-.32.845-.503 1.394H27.392a2.73 2.73 0 00-1.961.83l-4.698 4.837a2.734 2.734 0 00.012 3.822l4.785 4.868a2.734 2.734 0 001.95.818h8.887a2.734 2.734 0 100-5.468h-7.74l-2.11-2.147 2.032-2.092h18.797c1.26 0 2.357-.86 2.656-2.084.222-.903.5-1.771.9-2.816.265-.688.93-1.115 1.742-1.115h8.533c.773.002 1.439.417 1.737 1.084.734 1.642 1.61 4.185 1.617 6.97.007 2.808-.869 5.408-1.605 7.096a1.867 1.867 0 01-1.717 1.12h-8.635c-.756-.002-1.465-.49-1.763-1.212-.32-.775-.597-1.66-.847-2.706a2.735 2.735 0 00-5.319 1.272c.318 1.326.68 2.477 1.11 3.52 1.149 2.783 3.82 4.587 6.813 4.594h8.647a7.331 7.331 0 006.724-4.403c.945-2.167 2.07-5.538 2.06-9.293-.008-3.745-1.142-7.064-2.092-9.19z" fill="#FF27C2"/><path d="M58.926 59.063a2.734 2.734 0 100-5.47 2.734 2.734 0 000 5.47z" fill="#FF27C2"/></svg>