<svg width="70" height="70" fill="none" xmlns="http://www.w3.org/2000/svg"><path d="M61.797 4H8.203C3.68 4 0 7.68 0 12.203v32.813c0 4.523 3.68 8.203 8.203 8.203H29.5a2 2 0 012 2v1.468a2 2 0 01-2 2h-9.453a2 2 0 00-2 2v2.47a2 2 0 002 2h29.906a2 2 0 002-2v-2.47a2 2 0 00-2-2H40a2 2 0 01-2-2V55.22a2 2 0 012-2h21.797c4.523 0 8.203-3.68 8.203-8.203V12.203C70 7.68 66.32 4 61.797 4zm1.734 40.016a2.737 2.737 0 01-2.734 2.734H9.203a2.737 2.737 0 01-2.734-2.734V13.203a2.737 2.737 0 012.734-2.734h51.594a2.737 2.737 0 012.734 2.734v30.813z" fill="#FF27C2"/><path d="M23.5 20a2.5 2.5 0 000 5h22a2.5 2.5 0 000-5h-22zm3 9a2.5 2.5 0 000 5h16a2.5 2.5 0 000-5h-16z" fill="#FF27C2"/></svg>