<svg width="70" height="70" fill="none" xmlns="http://www.w3.org/2000/svg"><path d="M47.154 33.395L30.24 21.381a2.08 2.08 0 00-2.125-.164A1.983 1.983 0 0027 22.99v24.02c0 .752.428 1.438 1.114 1.776.29.144.607.215.927.215.418 0 .84-.13 1.198-.387L47.154 36.61c.534-.384.846-.977.846-1.607a1.965 1.965 0 00-.846-1.608z" fill="#FF27C2"/><path d="M35.001.005C15.667.005 0 15.672 0 35.005c0 19.328 15.667 34.99 35.001 34.99C54.331 69.995 70 54.33 70 35.005c.002-19.333-15.67-35-34.999-35zm0 64.15c-16.1 0-29.154-13.046-29.154-29.15C5.847 18.91 18.9 5.848 35 5.848c16.099 0 29.15 13.06 29.15 29.159.002 16.103-13.051 29.15-29.15 29.15z" fill="#FF27C2"/></svg>