<svg width="70" height="70" fill="none" xmlns="http://www.w3.org/2000/svg"><path d="M62.833 11.34c-3.517-1.209-6.334-4.042-7.536-7.58A5.536 5.536 0 0050.056 0H19.518a5.537 5.537 0 00-5.24 3.76c-1.203 3.538-4.02 6.371-7.537 7.58A5.554 5.554 0 003 16.594v7.725C3 34.4 6.02 44.107 11.736 52.39a48.96 48.96 0 0020.838 17.152 5.564 5.564 0 002.213.457c.755 0 1.51-.152 2.213-.457A48.958 48.958 0 0057.838 52.39c5.715-8.283 8.736-17.99 8.736-28.07v-7.726a5.554 5.554 0 00-3.74-5.256zm-1.36 12.98c0 9.245-2.77 18.146-8.011 25.742-4.792 6.946-10.395 11.381-18.093 14.717-.37.16-.794.161-1.164 0-7.699-3.336-13.301-7.771-18.093-14.717a45.128 45.128 0 01-8.01-25.742v-7.725c0-.623.39-1.177.972-1.376 4.708-1.618 8.479-4.408 10.087-9.139a1.436 1.436 0 011.357-.978h28.538c.612 0 1.158.393 1.357.978 1.608 4.731 5.38 7.52 10.087 9.139.582.2.973.753.973 1.376v7.725z" fill="#FF27C2"/><path d="M43.45 26.281h-.129v-5.38c0-4.357-4.465-7.901-8.821-7.901s-8.822 3.544-8.822 7.9v5.381h-.128a4.555 4.555 0 00-4.55 4.55v8.293c0 4.673 4.723 9.396 9.395 9.396h8.21c4.673 0 9.395-4.723 9.395-9.396v-8.292a4.555 4.555 0 00-4.55-4.55zm-13.071-4.46a4.126 4.126 0 014.12-4.12 4.126 4.126 0 014.122 4.12v4.46H30.38v-4.46zm12.92 17.303a4.7 4.7 0 01-4.694 4.695h-8.21a4.7 4.7 0 01-4.695-4.695v-8.292c0-.425.346-.771.771-.771H42.53c.425 0 .77.346.77.77v8.293z" fill="#FF27C2"/><path d="M34.36 33.596c-1.273 0-2.304.637-2.304 1.422v2.685c0 .785 1.031 1.421 2.303 1.421 1.273 0 2.304-.636 2.304-1.421v-2.685c0-.785-1.031-1.422-2.303-1.422z" fill="#FF27C2"/></svg>