<svg width="60" height="60" fill="none" xmlns="http://www.w3.org/2000/svg"><path d="M58 36.364a2 2 0 002-2V2a2 2 0 00-2-2H30.369a2 2 0 00-2 2v15.424a1 1 0 01-1 1H16.502c3.493-.605 6.158-3.656 6.158-7.319 0-4.097-3.333-7.43-7.43-7.43-4.097 0-7.43 3.333-7.43 7.43 0 3.663 2.665 6.714 6.158 7.32H8.846C3.952 18.424 0 22.404 0 27.3v14.438a2 2 0 002 2h3.002a2 2 0 012 2V58a2 2 0 002 2h13.751a2 2 0 002-2V30.144a1 1 0 011-1h1.616a1 1 0 011 1v4.22a2 2 0 002 2h10.072a2 2 0 012 2v16.118a2 2 0 01-2 2h-3.229a1.76 1.76 0 000 3.518H50.57a1.759 1.759 0 000-3.518h-2.612a2 2 0 01-2-2V38.364a2 2 0 012-2H58zM11.316 11.105a3.919 3.919 0 013.914-3.914 3.919 3.919 0 013.915 3.914 3.919 3.919 0 01-3.915 3.915 3.919 3.919 0 01-3.915-3.915zm1.046 45.258a1.76 1.76 0 01-1.758-1.758v-23.49a1.758 1.758 0 10-3.515 0v7.22a1.715 1.715 0 01-3.43 0V27.3a5.193 5.193 0 015.187-5.187h25.877a1.671 1.671 0 010 3.342H23.064a2 2 0 00-2 2v27.193a1.714 1.714 0 01-3.428 0v-9.53a1.758 1.758 0 00-3.515 0v9.486c0 .971-.788 1.758-1.758 1.758zm19.49-26.219a1 1 0 011-1h5.23a2 2 0 002-2v-5.532a2 2 0 01.63-1.456l9.84-9.269a1.758 1.758 0 00-2.41-2.56L38 17.88a2 2 0 01-1.37.544h-3.78a1 1 0 01-1-1V5.431a2 2 0 012-2h20.696a2 2 0 012 2v25.45a2 2 0 01-2 2H32.85a1 1 0 01-1-1v-1.737z" fill="#4331B3"/></svg>