<svg width="60" height="60" fill="none" xmlns="http://www.w3.org/2000/svg"><g clip-path="url(#clip0)" fill="#4331B3"><path d="M58.984 15.32a2.143 2.143 0 00-2.085-.095l-14.042 7.022v-5.104a6.429 6.429 0 00-6.428-6.429h-30A6.429 6.429 0 000 17.143v25.714a6.429 6.429 0 006.429 6.429h30a6.429 6.429 0 006.428-6.429v-5.104L56.9 44.786a2.143 2.143 0 003.1-1.929V17.143c0-.743-.384-1.433-1.016-1.824zM38.571 42.856a2.142 2.142 0 01-2.142 2.143h-30a2.143 2.143 0 01-2.143-2.143V17.143c0-1.184.96-2.143 2.143-2.143h30c1.183 0 2.142.96 2.142 2.143v25.714zm17.143-3.467l-12.857-6.428v-5.923l12.857-6.429v18.78z"/><path d="M21.429 21.429a8.571 8.571 0 100 17.142 8.571 8.571 0 000-17.142zm0 12.857a4.286 4.286 0 110-8.572 4.286 4.286 0 010 8.572z"/></g><defs><clipPath id="clip0"><path fill="#fff" d="M0 0h60v60H0z"/></clipPath></defs></svg>