<svg width="541" height="566" fill="none" xmlns="http://www.w3.org/2000/svg"><path d="M45.613 397.521C-8.503 321.775-20 245.903 45.613 173 104.113 107.999 95.25 7.058 188.5 1.5c100.481-5.99 249.258 24.757 252.496 136.914 1.22 42.249-27.435 98.466-11.778 136.962 15.755 38.732 63.33 16.522 86.694 50.137 34.834 50.117 28.515 100.764 0 153.487-29.89 55.266-82.774 74.357-136.912 84.5-77 14.426-80.91-60.037-152.303-96.418-68.03-34.667-134.481-4.33-181.084-69.561z" stroke="url(#paint0_linear)"/><defs><linearGradient id="paint0_linear" x1="270.169" y1=".79" x2="270.169" y2="565.33" gradientUnits="userSpaceOnUse"><stop stop-color="#9740EE"/><stop offset="1" stop-color="#523FC6"/></linearGradient></defs></svg>